<svg width="83" height="14" viewBox="0 0 83 14" fill="none" xmlns="http://www.w3.org/2000/svg">
<path d="M2.02539 1.38477L2.30078 1.42578H3.91797C3.97656 1.42578 4.02734 1.41211 4.07031 1.38477C4.23047 1.41992 4.31055 1.45898 4.31055 1.50195V4.45508C4.31055 4.50977 4.2832 4.53711 4.22852 4.53711H3.83594C3.78516 4.54492 3.75977 4.57031 3.75977 4.61328V4.6543C3.75977 4.70508 3.86328 4.74414 4.07031 4.77148C4.11719 4.74414 4.16992 4.73047 4.22852 4.73047C4.2832 4.79688 4.31055 4.84961 4.31055 4.88867L4.26953 4.9707C4.26953 5.0293 4.34766 5.08203 4.50391 5.12891C4.50391 5.49609 4.55664 5.67969 4.66211 5.67969C4.87305 5.67969 4.97852 5.69141 4.97852 5.71484L5.17773 5.67969H8.36523C8.39258 5.58594 8.40625 5.5332 8.40625 5.52148C8.40625 5.49414 8.39258 5.45508 8.36523 5.4043L8.40625 5.20508C8.37891 5.1543 8.36523 5.11523 8.36523 5.08789H8.16602C8.11523 5.08789 8.08984 5.06055 8.08984 5.00586V4.77148H6.87109C6.81641 4.77148 6.78906 4.74609 6.78906 4.69531V4.57227C7.27344 4.54883 7.62891 4.53711 7.85547 4.53711H8.01367C8.06445 4.53711 8.08984 4.50977 8.08984 4.45508V1.50195C8.09766 1.45117 8.12305 1.42578 8.16602 1.42578H10.9258V4.29688L10.9668 4.49609L10.8848 4.53711H10.293L10.0586 4.57227C10.0156 4.54883 9.95117 4.53711 9.86523 4.53711H9.70703C9.65234 4.54492 9.625 4.57031 9.625 4.61328V4.6543C9.63281 4.70508 9.66016 4.73047 9.70703 4.73047C10.1914 4.75781 10.5977 4.77148 10.9258 4.77148C10.9258 4.79883 10.9395 4.8125 10.9668 4.8125L10.9258 5.00586C10.9258 5.06055 11.0312 5.10156 11.2422 5.12891V7.88281L11.2773 7.95898L11.3594 7.92383H11.5176C11.6738 7.93945 11.752 7.97852 11.752 8.04102V8.24023C11.752 8.27539 11.7129 8.31445 11.6348 8.35742C11.541 8.33008 11.4883 8.31641 11.4766 8.31641L11.2422 8.35742V9.22461C11.2422 9.28711 11.1367 9.33789 10.9258 9.37695V11.7441L10.9668 12.0195L10.8496 12.0957H9.19141C8.96875 12.0957 8.61523 12.084 8.13086 12.0605L8.08984 11.9785V9.37695C8.09766 9.32617 8.12305 9.30078 8.16602 9.30078H8.36523L8.40625 9.02539C8.40625 8.9668 8.39258 8.91406 8.36523 8.86719C8.40039 8.54688 8.42773 8.36328 8.44727 8.31641L8.52344 8.35742H8.75781C8.79688 8.35742 8.83594 8.31836 8.875 8.24023V8.04102C8.875 7.98633 8.71875 7.94727 8.40625 7.92383L8.32422 7.76562L8.24805 7.80664H7.38086C7.28711 7.80664 7.16992 7.79297 7.0293 7.76562C6.98242 7.79297 6.92969 7.80664 6.87109 7.80664L6.78906 7.76562C6.74219 7.79297 6.68945 7.80664 6.63086 7.80664C6.60742 7.80664 6.5957 7.79297 6.5957 7.76562L6.51367 7.80664H5.41211L5.17773 7.76562C5.13477 7.79297 5.06836 7.80664 4.97852 7.80664H4.62695C4.57227 7.81445 4.54492 7.83984 4.54492 7.88281V9.22461C4.55273 9.27539 4.58008 9.30078 4.62695 9.30078H4.86133C4.91992 9.30078 4.97266 9.28711 5.01953 9.25977C5.23047 9.28711 5.33594 9.32617 5.33594 9.37695V9.41797C5.33594 9.47266 5.30859 9.5 5.25391 9.5H4.22852L4.03516 9.53516V12.0195C4.03516 12.0703 4.00781 12.0957 3.95312 12.0957H2.25977C2.03711 12.0957 1.68359 12.084 1.19922 12.0605L1.1582 11.9785V11.4688C1.1582 11.4414 1.17188 11.4277 1.19922 11.4277L1.1582 11.3516V9.57617C1.16602 9.52539 1.19141 9.5 1.23438 9.5H1.27539C1.35352 9.5 1.39258 9.51172 1.39258 9.53516L1.5918 9.5H2.25977L2.45898 9.45898V9.37695C2.45898 9.32617 2.43164 9.30078 2.37695 9.30078H1.75C1.69531 9.30078 1.66797 9.27539 1.66797 9.22461V5.16406L1.43359 5.00586C1.43359 4.84961 1.4082 4.77148 1.35742 4.77148H0.958984C0.908203 4.77148 0.882812 4.74609 0.882812 4.69531V4.6543C0.890625 4.59961 0.916016 4.57227 0.958984 4.57227H1.31641C1.35547 4.57227 1.39453 4.5332 1.43359 4.45508V2.29297C1.43359 2.23047 1.44727 2.17773 1.47461 2.13477C1.44727 2.08789 1.43359 2.03516 1.43359 1.97656V1.50195C1.44141 1.45117 1.46875 1.42578 1.51562 1.42578H1.86719C1.97266 1.42578 2.02539 1.41211 2.02539 1.38477ZM7.58008 7.95898H7.93164C7.98633 7.9707 8.01367 7.99805 8.01367 8.04102V8.24023C8.01367 8.29102 7.98633 8.31641 7.93164 8.31641C7.64258 8.31641 7.49805 8.27734 7.49805 8.19922H7.53906L7.49805 8.11719V8.04102C7.50586 7.98633 7.5332 7.95898 7.58008 7.95898ZM10.5156 1.38477H13.6035C13.8496 1.6543 14.1797 2.15625 14.5938 2.89062C14.5391 2.91406 14.3945 2.93945 14.1602 2.9668V3.00781C14.1602 3.04688 14.1992 3.08594 14.2773 3.125H14.4355L14.7168 3.08984C14.8574 3.32031 14.9492 3.4375 14.9922 3.44141H15.5078V3.56445H15.0742V3.59961C15.0977 3.6543 15.1094 3.69531 15.1094 3.72266C15.0469 3.77344 14.9941 3.79883 14.9512 3.79883L15.625 4.94727H15.707C15.8359 4.68555 15.9004 4.54102 15.9004 4.51367C15.8379 4.51367 15.7598 4.39453 15.666 4.15625C15.8027 3.89063 15.9746 3.75781 16.1816 3.75781C16.2754 3.62891 16.3809 3.55078 16.498 3.52344L16.6973 3.56445L16.8906 3.52344V3.44141H16.5391C16.4844 3.44141 16.457 3.41602 16.457 3.36523C16.457 3.3418 16.8789 2.68164 17.7227 1.38477H20.7754C20.8262 1.39258 20.8516 1.41797 20.8516 1.46094C20.2188 2.33203 19.7832 2.99219 19.5449 3.44141H19.9023C19.957 3.44922 19.9844 3.47656 19.9844 3.52344L19.9023 3.56445H19.4688L19.2285 3.79883H18.9941C17.6191 5.89648 16.9316 6.9668 16.9316 7.00977H17.4473C17.502 7.01758 17.5293 7.04297 17.5293 7.08594C17.4316 7.14062 17.3262 7.16797 17.2129 7.16797H17.0137L16.9316 7.12695L16.8906 7.20898V8.31641L17.1309 8.47461V8.75C17.1309 8.80469 17.1055 8.83203 17.0547 8.83203H16.2227V8.87305C16.2812 8.87305 16.334 8.88477 16.3809 8.9082C16.4043 8.9082 16.416 8.89648 16.416 8.87305L16.6152 8.9082H17.248C17.3027 8.91602 17.3301 8.94336 17.3301 8.99023V11.8789L17.4883 12.0371C17.4883 12.0918 17.4492 12.1191 17.3711 12.1191C17.3438 12.1191 17.3301 12.1055 17.3301 12.0781L17.1309 12.1191H15.3496C15.3223 12.1191 15.3086 12.1055 15.3086 12.0781C15.2812 12.0781 15.2676 12.0918 15.2676 12.1191C14.9473 12.084 14.7637 12.0566 14.7168 12.0371C14.7168 12.0645 14.7031 12.0781 14.6758 12.0781C14.6758 12.0625 14.6094 11.9961 14.4766 11.8789V9.06641C14.4766 9.03125 14.4375 8.99219 14.3594 8.94922H13.7617L13.5273 8.9082C13.4766 8.93555 13.4375 8.94922 13.4102 8.94922V8.9082L13.3281 8.94922H13.2871C13.2363 8.94922 13.2109 8.92383 13.2109 8.87305L13.2871 8.83203H14.1602C14.2148 8.83203 14.2422 8.80469 14.2422 8.75V8.47461C14.2422 8.43945 14.1484 8.38672 13.9609 8.31641L14.002 8.04102V7.28516L13.9609 7.20898L14.084 7.12695H14.3594C14.3867 7.12695 14.4004 7.14062 14.4004 7.16797C14.5293 7.13281 14.5938 7.09375 14.5938 7.05078L14.2012 7.00977H14.002C13.8105 6.8457 13.084 5.77539 11.8223 3.79883C11.8691 3.77148 11.9219 3.75781 11.9805 3.75781L11.9395 3.56445H12.1797L12.3789 3.52344C12.3789 3.46875 12.3516 3.44141 12.2969 3.44141H11.8633L11.5879 3.125H11.1484C11.1094 3.125 11.0566 3.07227 10.9902 2.9668C11.3066 2.93945 11.4648 2.90039 11.4648 2.84961C10.832 1.97852 10.5156 1.49023 10.5156 1.38477ZM14.084 6.72852V6.76953H14.1602V6.72852H14.084ZM13.252 7.00977L13.2871 7.08594L13.2109 7.12695L13.1699 7.05078L13.252 7.00977ZM13.5684 7.00977H13.6035V7.12695H13.4863V7.08594C13.4941 7.03516 13.5215 7.00977 13.5684 7.00977ZM20.207 1.36719C20.3477 1.39453 20.4805 1.4082 20.6055 1.4082C20.7305 1.4082 20.8633 1.39453 21.0039 1.36719C21.0625 1.36719 21.1152 1.38086 21.1621 1.4082C21.7168 1.38086 22.168 1.36719 22.5156 1.36719H24.1035C25.4043 1.36719 26.3203 1.67188 26.8516 2.28125L26.7695 2.32227H26.4941V2.39844C26.502 2.45312 26.5273 2.48047 26.5703 2.48047H27.0508C27.4023 2.78906 27.6797 3.37305 27.8828 4.23242H28.3223C28.373 4.24023 28.3984 4.26562 28.3984 4.30859C28.3125 4.36328 28.2344 4.39062 28.1641 4.39062L28.082 4.34961C27.9219 4.37695 27.8418 4.4043 27.8418 4.43164C27.8691 4.48242 27.8828 4.52148 27.8828 4.54883L27.7656 4.63086H27.4844V4.98828C27.4844 5.26953 27.3398 5.71875 27.0508 6.33594C26.9961 6.34766 26.9688 6.375 26.9688 6.41797H27.9648V6.53516H27.25C27.1875 6.53516 27.1328 6.54883 27.0859 6.57617C27.043 6.54883 26.9902 6.53516 26.9277 6.53516C26.8496 6.61719 26.7051 6.66992 26.4941 6.69336C26.3613 6.81836 26.2949 6.91211 26.2949 6.97461C26.3457 6.98242 26.3711 7.00977 26.3711 7.05664C25.9688 7.45117 25.3984 7.70312 24.6602 7.8125H24.1855C23.8418 7.8125 23.4844 7.82422 23.1133 7.84766C22.9648 7.82422 22.8574 7.8125 22.791 7.8125C22.6113 7.83594 22.4668 7.84766 22.3574 7.84766L22.2754 7.8125C22.2285 7.83594 22.1758 7.84766 22.1172 7.84766V8.04688C22.1172 8.07422 22.1035 8.08789 22.0762 8.08789C22.0762 8.27539 22.209 8.36914 22.4746 8.36914V11.7441C22.4746 11.877 22.5273 11.9434 22.6328 11.9434V12.0664C22.6328 12.1172 22.6074 12.1426 22.5566 12.1426H20.8457C20.6191 12.1426 20.2871 12.1309 19.8496 12.1074C19.8496 12.1309 19.8359 12.1426 19.8086 12.1426C19.8008 12.0566 19.7227 11.9648 19.5742 11.8672V8.32812L19.375 8.28711H19.2168V7.0918L18.9355 6.93359V6.73438L19.293 6.53516C19.7812 6.51172 20.0859 6.5 20.207 6.5V6.45898C20.1289 6.45898 20.0371 6.44531 19.9316 6.41797L19.8496 6.45898C19.7051 6.43164 19.5859 6.41797 19.4922 6.41797H19.293C19.2422 6.41797 19.2168 6.39062 19.2168 6.33594V4.63086H19.375C19.5312 4.63086 19.6094 4.55078 19.6094 4.39062C19.7305 4.39062 19.8105 4.37695 19.8496 4.34961C19.8965 4.37695 19.9492 4.39062 20.0078 4.39062C20.0625 4.39062 20.0898 4.36328 20.0898 4.30859C20.0898 4.25781 20.0625 4.23242 20.0078 4.23242H19.6504C19.5996 4.23242 19.5742 4.19141 19.5742 4.10938C19.5742 3.78125 19.5859 3.47656 19.6094 3.19531C19.5859 2.99219 19.5742 2.76758 19.5742 2.52148L19.4922 2.48047H19.0938C19.043 2.48047 19.0176 2.45312 19.0176 2.39844C19.0254 2.34766 19.0508 2.32227 19.0938 2.32227H19.4922C19.5547 2.32227 19.5938 2.25586 19.6094 2.12305L19.5742 1.92383C19.5938 1.58008 19.6328 1.4082 19.6914 1.4082H19.8496C19.9902 1.4082 20.1094 1.39453 20.207 1.36719ZM18.6602 2.32227H18.7363C18.791 2.33008 18.8184 2.35547 18.8184 2.39844V2.48047H18.6602C18.6055 2.48047 18.5781 2.45312 18.5781 2.39844C18.5859 2.34766 18.6133 2.32227 18.6602 2.32227ZM22.4746 3.47656V4.15039C22.4824 4.20508 22.5098 4.23242 22.5566 4.23242H22.9141C22.9648 4.24023 22.9902 4.26562 22.9902 4.30859C22.9902 4.36328 22.9648 4.39062 22.9141 4.39062C22.8555 4.39062 22.8027 4.37695 22.7559 4.34961C22.709 4.37695 22.6562 4.39062 22.5977 4.39062L22.5156 4.34961C22.4805 4.53711 22.4414 4.63086 22.3984 4.63086H22.1172C22.1172 4.7793 22.1035 4.87109 22.0762 4.90625C22.1035 5.05078 22.1172 5.16992 22.1172 5.26367V5.3457C22.1172 5.4043 22.1035 5.45703 22.0762 5.50391C22.1035 5.55078 22.1172 5.60352 22.1172 5.66211V5.82031H23.5469C24.0977 5.82031 24.4824 5.5293 24.7012 4.94727C24.7012 4.7793 24.7285 4.66016 24.7832 4.58984L24.9824 4.63086H25.0234C25.0742 4.63086 25.0996 4.55078 25.0996 4.39062H25.498C25.498 4.36328 25.5117 4.32227 25.5391 4.26758L25.457 4.23242H25.0234C24.7656 3.72852 24.3281 3.47656 23.7109 3.47656H22.4746ZM24.4258 4.26758H24.8594V4.34961H24.625L24.4258 4.30859V4.26758ZM29.3242 1.36719H34.9609C34.9961 1.36719 35.0352 1.40625 35.0781 1.48438V2.83789C35.0781 2.87305 35.1172 2.91211 35.1953 2.95508H35.3535C35.416 2.95508 35.4707 2.94141 35.5176 2.91406C35.6465 2.94922 35.7109 2.98828 35.7109 3.03125V3.11328C35.7109 3.16406 35.6855 3.18945 35.6348 3.18945H35.4355V3.38867C35.4355 3.44336 35.4082 3.4707 35.3535 3.4707H32.6172C32.3398 3.4707 31.918 3.48437 31.3516 3.51172V3.86914C31.3594 3.91992 31.3848 3.94531 31.4277 3.94531H31.7852C31.8398 3.95312 31.8672 3.98047 31.8672 4.02734V5.73242H35.3184C35.3691 5.74023 35.3945 5.76562 35.3945 5.80859V6.40625C35.3945 6.45703 35.25 6.49609 34.9609 6.52344L34.8789 6.48242L34.6445 6.52344C34.5898 6.49609 34.5488 6.48242 34.5215 6.48242L34.4805 6.68164V7.35547L34.5215 7.75391L34.4043 7.83594H31.0293C31.0293 7.92578 30.9375 7.97852 30.7539 7.99414L30.5137 7.95312H30.4375C30.3828 7.96094 30.3555 7.98828 30.3555 8.03516V8.07031H30.5957L30.9941 8.11133V9.42383C30.9941 9.56445 31.0723 9.64258 31.2285 9.6582C31.2285 9.7168 31.2422 9.76953 31.2695 9.81641C31.2422 9.86328 31.2285 9.91602 31.2285 9.97461V10.0156H35.002C35.0527 10.0156 35.0918 10.1484 35.1191 10.4141H35.7109C35.7656 10.4219 35.793 10.4473 35.793 10.4902C35.793 10.5449 35.7656 10.5723 35.7109 10.5723H35.2773L35.0781 10.6133V12.1191H28.5742C28.5469 12.1191 28.5332 12.1055 28.5332 12.0781L28.4512 12.1191H28.2168C28.1777 12.1191 28.1367 12.0801 28.0938 12.002V11.9199C28.0938 11.8926 28.1074 11.8789 28.1348 11.8789L28.0938 11.8027V10.8477L27.8945 10.8125H27.543C27.4883 10.8125 27.4609 10.7852 27.4609 10.7305V10.6484C27.4688 10.5977 27.4961 10.5723 27.543 10.5723C27.9844 10.5449 28.3281 10.5312 28.5742 10.5312H28.7324V10.4551L28.334 10.4141H28.1758C28.1211 10.4141 28.0938 10.375 28.0938 10.2969L28.1348 10.2148C28.1074 10.168 28.0938 10.1152 28.0938 10.0566C28.0938 10.0215 28.1738 9.98242 28.334 9.93945C28.3613 9.89258 28.375 9.83789 28.375 9.77539C28.375 9.66211 28.2812 9.59766 28.0938 9.58203V8.22852L28.1348 8.15234L28.0586 8.11133H27.543C27.4883 8.11133 27.4609 8.08594 27.4609 8.03516C27.4688 7.98047 27.4961 7.95312 27.543 7.95312H28.0176C28.0684 7.95312 28.0938 7.92578 28.0938 7.87109V6.56445C28.0938 6.50977 28.1348 6.48242 28.2168 6.48242C28.2988 6.48242 28.5488 6.4707 28.9668 6.44727V4.02734C28.9668 3.94531 28.8223 3.9043 28.5332 3.9043H28.4512V3.27148L28.7324 3.11328V3.03125C28.7324 2.98047 28.7051 2.95508 28.6504 2.95508H28.1758C28.1211 2.95508 28.0938 2.92773 28.0938 2.87305V1.48438L28.1348 1.4082C28.666 1.38086 29.0625 1.36719 29.3242 1.36719ZM27.8184 6.13086H28.0176C28.0684 6.13867 28.0938 6.16406 28.0938 6.20703V6.40625C28.0938 6.45703 28.0684 6.48242 28.0176 6.48242H27.8184C27.7637 6.48242 27.7363 6.45703 27.7363 6.40625V6.20703C27.748 6.15625 27.7754 6.13086 27.8184 6.13086ZM29.248 10.5312H29.6055V10.4551H29.3242C29.2734 10.4629 29.248 10.4883 29.248 10.5312ZM33.5312 10.5723V10.7305C33.5391 10.7852 33.5664 10.8125 33.6133 10.8125H34.1641C34.1641 10.7812 34.1777 10.7402 34.2051 10.6895C34.1777 10.6387 34.1641 10.5996 34.1641 10.5723H33.5312ZM36.291 1.36719C36.3418 1.36719 36.3672 1.38086 36.3672 1.4082C36.7656 1.38086 37.0586 1.36719 37.2461 1.36719H40.0234C41.0312 1.36719 41.707 1.45898 42.0508 1.64258C42.2891 1.71289 42.4355 1.79297 42.4902 1.88281C42.4629 1.92969 42.4492 1.98242 42.4492 2.04102C42.8633 2.24023 43.2207 2.67773 43.5215 3.35352C43.709 3.91602 43.8027 4.33984 43.8027 4.625C43.8027 4.72266 43.7637 5.04102 43.6855 5.58008C43.8418 5.58008 43.9199 5.60742 43.9199 5.66211C43.6191 6.48633 43.1426 7.0957 42.4902 7.49023L41.8926 7.72461V7.76562C41.9551 7.82422 42.1016 8.03711 42.332 8.4043C42.2461 8.45508 42.1797 8.48047 42.1328 8.48047L42.1738 8.5625V8.60352C41.6934 8.62695 41.375 8.63867 41.2188 8.63867V8.67969C41.2266 8.73438 41.2539 8.76172 41.3008 8.76172H42.291L42.6484 9.19531C42.9102 9.19531 43.082 9.32812 43.1641 9.59375V9.63477C43.0312 9.63477 42.9648 9.66211 42.9648 9.7168C43.7891 10.9004 44.2012 11.5098 44.2012 11.5449C44.0957 11.5645 44.043 11.5898 44.043 11.6211C44.2266 11.8984 44.3184 12.0586 44.3184 12.1016L44.2422 12.1367H42.25C42.0273 12.1367 41.6699 12.125 41.1777 12.1016C40.9668 11.8008 40.8613 11.6406 40.8613 11.6211C40.9043 11.5938 40.9707 11.5801 41.0605 11.5801V11.5449C40.291 10.377 39.9062 9.74023 39.9062 9.63477H40.0645V9.55273C39.9824 9.29102 39.8242 9.16016 39.5898 9.16016C39.3828 8.89453 39.2227 8.76172 39.1094 8.76172H38.3945V8.96094C38.3945 8.98438 38.3828 8.99609 38.3594 8.99609L38.3945 9.07812V10.9062H38.834C38.8887 10.9141 38.916 10.9414 38.916 10.9883C38.916 11.0391 38.8887 11.0645 38.834 11.0645H38.3945C38.3945 11.1973 38.3828 11.2637 38.3594 11.2637L38.3945 11.3457V11.8203C38.3945 11.8789 38.3828 11.9316 38.3594 11.9785C38.3828 12.0293 38.3945 12.0703 38.3945 12.1016L38.3184 12.1367H36.6895C36.4238 12.1367 36.0254 12.125 35.4941 12.1016V11.1465C35.502 11.0918 35.5293 11.0645 35.5762 11.0645H36.0098V10.9473H35.5762C35.5215 10.9473 35.4941 10.9199 35.4941 10.8652V8.80273L35.2949 8.76172H34.5039C34.4492 8.76172 34.4219 8.73438 34.4219 8.67969L34.5039 8.63867C35.1641 8.62695 35.4941 8.60156 35.4941 8.5625C35.4941 8.48047 35.5215 8.43945 35.5762 8.43945C35.627 8.4668 35.666 8.48047 35.6934 8.48047L35.7344 8.4043V5.69727C35.7422 5.64648 35.7676 5.62109 35.8105 5.62109H36.0098L36.0508 5.38086C36 5.35352 35.9609 5.33984 35.9336 5.33984C35.6992 5.36719 35.5664 5.38086 35.5352 5.38086C35.5352 5.16992 35.4297 5.06445 35.2188 5.06445V4.86523L35.4941 4.70703V2.04102L35.7344 1.88281V1.48438C35.7422 1.43359 35.7676 1.4082 35.8105 1.4082H36.0918C36.1816 1.4082 36.248 1.39453 36.291 1.36719ZM38.3945 3.47656C38.3945 3.5 38.3828 3.51172 38.3594 3.51172C38.3828 3.77734 38.3945 3.97656 38.3945 4.10938V4.34961C38.3945 4.37695 38.3828 4.39062 38.3594 4.39062L38.3945 4.4668V4.50781C38.3945 4.74609 38.2891 4.86523 38.0781 4.86523V5.10547C38.2891 5.12109 38.3945 5.16016 38.3945 5.22266H38.3594C38.3828 5.27344 38.3945 5.3125 38.3945 5.33984H39.3496V5.42188H38.9922L38.834 5.62109H38.6348V6.01953H39.8652C40.4004 6.01953 40.7598 5.88672 40.9434 5.62109C41.2051 5.62109 41.3359 5.52734 41.3359 5.33984H40.9785L40.9023 5.30469C40.9531 5.12109 40.9785 4.96094 40.9785 4.82422V4.50781C40.9785 4.23047 40.7402 3.92578 40.2637 3.59375C40.2051 3.53906 39.9414 3.5 39.4727 3.47656L39.3906 3.51172L39.3086 3.47656C39.2852 3.47656 39.2734 3.48828 39.2734 3.51172C39.1797 3.48828 39.125 3.47656 39.1094 3.47656C38.8789 3.5 38.748 3.51172 38.7168 3.51172C38.5684 3.48828 38.4609 3.47656 38.3945 3.47656ZM36.1328 5.38086V5.42188H36.209V5.38086H36.1328ZM36.332 5.38086V5.42188H36.4082V5.38086H36.332ZM43.8438 5.33984H43.9609V5.42188H43.8438V5.33984ZM44.1191 5.33984H44.2422V5.42188H44.1191V5.33984ZM44.3184 5.33984H44.6758V5.42188H44.3184V5.33984ZM38.5176 8.48047L38.4355 8.43945C38.4355 8.49414 38.4102 8.52148 38.3594 8.52148C38.3828 8.57227 38.3945 8.61133 38.3945 8.63867C38.6602 8.61523 38.8594 8.60352 38.9922 8.60352H39.0332L39.1094 8.63867L39.2734 8.36328C39.168 8.125 39.1016 8.00586 39.0742 8.00586H38.7168C38.6621 8.00586 38.6211 8.16406 38.5938 8.48047H38.5176ZM37.3223 8.63867V8.67969C37.3301 8.73438 37.3574 8.76172 37.4043 8.76172H38.1191C38.1699 8.76172 38.1953 8.73438 38.1953 8.67969V8.63867H37.3223ZM40.5039 11.6211H40.5801C40.5801 11.6641 40.6074 11.7168 40.6621 11.7793V11.8613C40.627 11.8574 40.5742 11.791 40.5039 11.6621V11.6211ZM40.7793 12.0195H40.8203V12.1016H40.7793V12.0195ZM45.2734 1.36719C45.4141 1.39453 45.5469 1.4082 45.6719 1.4082C45.7969 1.4082 45.9297 1.39453 46.0703 1.36719C46.1289 1.36719 46.1816 1.38086 46.2285 1.4082C46.7832 1.38086 47.2344 1.36719 47.582 1.36719H49.1699C50.4707 1.36719 51.3867 1.67188 51.918 2.28125L51.8359 2.32227H51.5605V2.39844C51.5684 2.45312 51.5938 2.48047 51.6367 2.48047H52.1172C52.4688 2.78906 52.7461 3.37305 52.9492 4.23242H53.3887C53.4395 4.24023 53.4648 4.26562 53.4648 4.30859C53.3789 4.36328 53.3008 4.39062 53.2305 4.39062L53.1484 4.34961C52.9883 4.37695 52.9082 4.4043 52.9082 4.43164C52.9355 4.48242 52.9492 4.52148 52.9492 4.54883L52.832 4.63086H52.5508V4.98828C52.5508 5.26953 52.4062 5.71875 52.1172 6.33594C52.0625 6.34766 52.0352 6.375 52.0352 6.41797H53.0312V6.53516H52.3164C52.2539 6.53516 52.1992 6.54883 52.1523 6.57617C52.1094 6.54883 52.0566 6.53516 51.9941 6.53516C51.916 6.61719 51.7715 6.66992 51.5605 6.69336C51.4277 6.81836 51.3613 6.91211 51.3613 6.97461C51.4121 6.98242 51.4375 7.00977 51.4375 7.05664C51.0352 7.45117 50.4648 7.70312 49.7266 7.8125H49.252C48.9082 7.8125 48.5508 7.82422 48.1797 7.84766C48.0312 7.82422 47.9238 7.8125 47.8574 7.8125C47.6777 7.83594 47.5332 7.84766 47.4238 7.84766L47.3418 7.8125C47.2949 7.83594 47.2422 7.84766 47.1836 7.84766V8.04688C47.1836 8.07422 47.1699 8.08789 47.1426 8.08789C47.1426 8.27539 47.2754 8.36914 47.541 8.36914V11.7441C47.541 11.877 47.5938 11.9434 47.6992 11.9434V12.0664C47.6992 12.1172 47.6738 12.1426 47.623 12.1426H45.9121C45.6855 12.1426 45.3535 12.1309 44.916 12.1074C44.916 12.1309 44.9023 12.1426 44.875 12.1426C44.8672 12.0566 44.7891 11.9648 44.6406 11.8672V8.32812L44.4414 8.28711H44.2832V7.0918L44.002 6.93359V6.73438L44.3594 6.53516C44.8477 6.51172 45.1523 6.5 45.2734 6.5V6.45898C45.1953 6.45898 45.1035 6.44531 44.998 6.41797L44.916 6.45898C44.7715 6.43164 44.6523 6.41797 44.5586 6.41797H44.3594C44.3086 6.41797 44.2832 6.39062 44.2832 6.33594V4.63086H44.4414C44.5977 4.63086 44.6758 4.55078 44.6758 4.39062C44.7969 4.39062 44.877 4.37695 44.916 4.34961C44.9629 4.37695 45.0156 4.39062 45.0742 4.39062C45.1289 4.39062 45.1562 4.36328 45.1562 4.30859C45.1562 4.25781 45.1289 4.23242 45.0742 4.23242H44.7168C44.666 4.23242 44.6406 4.19141 44.6406 4.10938C44.6406 3.78125 44.6523 3.47656 44.6758 3.19531C44.6523 2.99219 44.6406 2.76758 44.6406 2.52148L44.5586 2.48047H44.1602C44.1094 2.48047 44.084 2.45312 44.084 2.39844C44.0918 2.34766 44.1172 2.32227 44.1602 2.32227H44.5586C44.6211 2.32227 44.6602 2.25586 44.6758 2.12305L44.6406 1.92383C44.6602 1.58008 44.6992 1.4082 44.7578 1.4082H44.916C45.0566 1.4082 45.1758 1.39453 45.2734 1.36719ZM43.7266 2.32227H43.8027C43.8574 2.33008 43.8848 2.35547 43.8848 2.39844V2.48047H43.7266C43.6719 2.48047 43.6445 2.45312 43.6445 2.39844C43.6523 2.34766 43.6797 2.32227 43.7266 2.32227ZM47.541 3.47656V4.15039C47.5488 4.20508 47.5762 4.23242 47.623 4.23242H47.9805C48.0312 4.24023 48.0566 4.26562 48.0566 4.30859C48.0566 4.36328 48.0312 4.39062 47.9805 4.39062C47.9219 4.39062 47.8691 4.37695 47.8223 4.34961C47.7754 4.37695 47.7227 4.39062 47.6641 4.39062L47.582 4.34961C47.5469 4.53711 47.5078 4.63086 47.4648 4.63086H47.1836C47.1836 4.7793 47.1699 4.87109 47.1426 4.90625C47.1699 5.05078 47.1836 5.16992 47.1836 5.26367V5.3457C47.1836 5.4043 47.1699 5.45703 47.1426 5.50391C47.1699 5.55078 47.1836 5.60352 47.1836 5.66211V5.82031H48.6133C49.1641 5.82031 49.5488 5.5293 49.7676 4.94727C49.7676 4.7793 49.7949 4.66016 49.8496 4.58984L50.0488 4.63086H50.0898C50.1406 4.63086 50.166 4.55078 50.166 4.39062H50.5645C50.5645 4.36328 50.5781 4.32227 50.6055 4.26758L50.5234 4.23242H50.0898C49.832 3.72852 49.3945 3.47656 48.7773 3.47656H47.541ZM49.4922 4.26758H49.9258V4.34961H49.6914L49.4922 4.30859V4.26758ZM54.0449 1.36719C54.0957 1.36719 54.1211 1.38086 54.1211 1.4082C54.5195 1.38086 54.8125 1.36719 55 1.36719H57.7773C58.7852 1.36719 59.4609 1.45898 59.8047 1.64258C60.043 1.71289 60.1895 1.79297 60.2441 1.88281C60.2168 1.92969 60.2031 1.98242 60.2031 2.04102C60.6172 2.24023 60.9746 2.67773 61.2754 3.35352C61.4629 3.91602 61.5566 4.33984 61.5566 4.625C61.5566 4.72266 61.5176 5.04102 61.4395 5.58008C61.5957 5.58008 61.6738 5.60742 61.6738 5.66211C61.373 6.48633 60.8965 7.0957 60.2441 7.49023L59.6465 7.72461V7.76562C59.709 7.82422 59.8555 8.03711 60.0859 8.4043C60 8.45508 59.9336 8.48047 59.8867 8.48047L59.9277 8.5625V8.60352C59.4473 8.62695 59.1289 8.63867 58.9727 8.63867V8.67969C58.9805 8.73438 59.0078 8.76172 59.0547 8.76172H60.0449L60.4023 9.19531C60.6641 9.19531 60.8359 9.32812 60.918 9.59375V9.63477C60.7852 9.63477 60.7188 9.66211 60.7188 9.7168C61.543 10.9004 61.9551 11.5098 61.9551 11.5449C61.8496 11.5645 61.7969 11.5898 61.7969 11.6211C61.9805 11.8984 62.0723 12.0586 62.0723 12.1016L61.9961 12.1367H60.0039C59.7812 12.1367 59.4238 12.125 58.9316 12.1016C58.7207 11.8008 58.6152 11.6406 58.6152 11.6211C58.6582 11.5938 58.7246 11.5801 58.8145 11.5801V11.5449C58.0449 10.377 57.6602 9.74023 57.6602 9.63477H57.8184V9.55273C57.7363 9.29102 57.5781 9.16016 57.3438 9.16016C57.1367 8.89453 56.9766 8.76172 56.8633 8.76172H56.1484V8.96094C56.1484 8.98438 56.1367 8.99609 56.1133 8.99609L56.1484 9.07812V10.9062H56.5879C56.6426 10.9141 56.6699 10.9414 56.6699 10.9883C56.6699 11.0391 56.6426 11.0645 56.5879 11.0645H56.1484C56.1484 11.1973 56.1367 11.2637 56.1133 11.2637L56.1484 11.3457V11.8203C56.1484 11.8789 56.1367 11.9316 56.1133 11.9785C56.1367 12.0293 56.1484 12.0703 56.1484 12.1016L56.0723 12.1367H54.4434C54.1777 12.1367 53.7793 12.125 53.248 12.1016V11.1465C53.2559 11.0918 53.2832 11.0645 53.3301 11.0645H53.7637V10.9473H53.3301C53.2754 10.9473 53.248 10.9199 53.248 10.8652V8.80273L53.0488 8.76172H52.2578C52.2031 8.76172 52.1758 8.73438 52.1758 8.67969L52.2578 8.63867C52.918 8.62695 53.248 8.60156 53.248 8.5625C53.248 8.48047 53.2754 8.43945 53.3301 8.43945C53.3809 8.4668 53.4199 8.48047 53.4473 8.48047L53.4883 8.4043V5.69727C53.4961 5.64648 53.5215 5.62109 53.5645 5.62109H53.7637L53.8047 5.38086C53.7539 5.35352 53.7148 5.33984 53.6875 5.33984C53.4531 5.36719 53.3203 5.38086 53.2891 5.38086C53.2891 5.16992 53.1836 5.06445 52.9727 5.06445V4.86523L53.248 4.70703V2.04102L53.4883 1.88281V1.48438C53.4961 1.43359 53.5215 1.4082 53.5645 1.4082H53.8457C53.9355 1.4082 54.002 1.39453 54.0449 1.36719ZM56.1484 3.47656C56.1484 3.5 56.1367 3.51172 56.1133 3.51172C56.1367 3.77734 56.1484 3.97656 56.1484 4.10938V4.34961C56.1484 4.37695 56.1367 4.39062 56.1133 4.39062L56.1484 4.4668V4.50781C56.1484 4.74609 56.043 4.86523 55.832 4.86523V5.10547C56.043 5.12109 56.1484 5.16016 56.1484 5.22266H56.1133C56.1367 5.27344 56.1484 5.3125 56.1484 5.33984H57.1035V5.42188H56.7461L56.5879 5.62109H56.3887V6.01953H57.6191C58.1543 6.01953 58.5137 5.88672 58.6973 5.62109C58.959 5.62109 59.0898 5.52734 59.0898 5.33984H58.7324L58.6562 5.30469C58.707 5.12109 58.7324 4.96094 58.7324 4.82422V4.50781C58.7324 4.23047 58.4941 3.92578 58.0176 3.59375C57.959 3.53906 57.6953 3.5 57.2266 3.47656L57.1445 3.51172L57.0625 3.47656C57.0391 3.47656 57.0273 3.48828 57.0273 3.51172C56.9336 3.48828 56.8789 3.47656 56.8633 3.47656C56.6328 3.5 56.502 3.51172 56.4707 3.51172C56.3223 3.48828 56.2148 3.47656 56.1484 3.47656ZM53.8867 5.38086V5.42188H53.9629V5.38086H53.8867ZM54.0859 5.38086V5.42188H54.1621V5.38086H54.0859ZM61.5977 5.33984H61.7148V5.42188H61.5977V5.33984ZM61.873 5.33984H61.9961V5.42188H61.873V5.33984ZM62.0723 5.33984H62.4297V5.42188H62.0723V5.33984ZM56.2715 8.48047L56.1895 8.43945C56.1895 8.49414 56.1641 8.52148 56.1133 8.52148C56.1367 8.57227 56.1484 8.61133 56.1484 8.63867C56.4141 8.61523 56.6133 8.60352 56.7461 8.60352H56.7871L56.8633 8.63867L57.0273 8.36328C56.9219 8.125 56.8555 8.00586 56.8281 8.00586H56.4707C56.416 8.00586 56.375 8.16406 56.3477 8.48047H56.2715ZM55.0762 8.63867V8.67969C55.084 8.73438 55.1113 8.76172 55.1582 8.76172H55.873C55.9238 8.76172 55.9492 8.73438 55.9492 8.67969V8.63867H55.0762ZM58.2578 11.6211H58.334C58.334 11.6641 58.3613 11.7168 58.416 11.7793V11.8613C58.3809 11.8574 58.3281 11.791 58.2578 11.6621V11.6211ZM58.5332 12.0195H58.5742V12.1016H58.5332V12.0195ZM68.1484 1.38477C69.0586 1.38477 69.8281 1.57812 70.457 1.96484C70.4102 1.98828 70.3594 2 70.3047 2V2.07617C70.3984 2.07617 70.7559 2.32031 71.377 2.80859C71.5293 2.80859 71.6836 2.85938 71.8398 2.96094H72.2676L72.4551 3.00195V3.04297C72.4551 3.09375 72.4297 3.11914 72.3789 3.11914H72.1855C72.1621 3.11914 72.1504 3.10547 72.1504 3.07812C72.1074 3.10547 72.043 3.11914 71.957 3.11914V3.1543C72.5391 3.80273 72.9746 4.67578 73.2637 5.77344L73.1523 5.84961H72.2266V5.89062C72.6055 5.89062 72.8242 5.90234 72.8828 5.92578C72.9258 5.90234 72.9902 5.89062 73.0762 5.89062H73.1523C73.2539 5.89062 73.3047 6.13477 73.3047 6.62305C73.3125 6.67383 73.3379 6.69922 73.3809 6.69922H73.7676C73.791 6.69922 73.8027 6.71094 73.8027 6.73438L73.8848 6.69922H73.9199C74.0762 6.71484 74.1543 6.75195 74.1543 6.81055C74.1543 7.66602 73.9102 8.52734 73.4219 9.39453L73.3457 9.42969H72.6133L72.4551 9.54688H72.0742C72.0234 9.55469 71.998 9.58008 71.998 9.62305C72.2793 9.62305 72.4199 9.63672 72.4199 9.66406C71.8223 10.6484 70.8984 11.3789 69.6484 11.8555C69.0391 12.0117 68.4863 12.0898 67.9902 12.0898H67.5684C67.2676 12.0898 67.0625 12.0625 66.9531 12.0078C66.9023 12.0352 66.8633 12.0488 66.8359 12.0488C65.707 11.8574 64.8223 11.4844 64.1816 10.9297C63.6855 10.5117 63.2871 10.0898 62.9863 9.66406C62.9434 9.63672 62.8926 9.62305 62.834 9.62305H62.4883V9.54688H62.8691C62.8691 9.46875 62.8965 9.42969 62.9512 9.42969H63.4492L63.6426 9.39453C63.2441 8.63672 63.0254 7.94336 62.9863 7.31445V7.19727L63.0273 7.12109C63.0508 7.12109 63.0625 7.13477 63.0625 7.16211C63.4492 7.13477 63.7324 7.12109 63.9121 7.12109H64.4863V7.08008C64.4863 7.0293 64.4609 7.00391 64.4102 7.00391H63.0273C62.9961 7.00391 62.9316 6.91406 62.834 6.73438H62.1777C62.127 6.73438 62.1016 6.70898 62.1016 6.6582C62.1016 6.60742 62.2051 6.56836 62.4121 6.54102V6.38867C62.3848 6.38867 62.3457 6.37695 62.2949 6.35352C62.2441 6.37695 62.2051 6.38867 62.1777 6.38867C62.1543 6.33789 62.1426 6.29883 62.1426 6.27148C62.2168 5.38086 62.5488 4.48438 63.1387 3.58203C63.3652 3.27344 63.5723 3.11914 63.7598 3.11914C64.0918 3.11914 64.2578 3.08008 64.2578 3.00195C64.1719 2.95117 64.0957 2.92578 64.0293 2.92578H63.9883L63.7949 2.96094L63.7598 2.88477L63.7949 2.80859C63.6934 2.80859 63.6426 2.7832 63.6426 2.73242C63.834 2.56445 64.1934 2.32031 64.7207 2H65.1426C65.8301 1.58984 66.832 1.38477 68.1484 1.38477ZM64.9492 6.19531V6.27148L65.1836 6.42969V6.50586C65.1836 6.55664 65.1562 6.58203 65.1016 6.58203H64.9141V6.69922H65.6055C65.6484 6.69922 65.6875 6.78906 65.7227 6.96875C66.2734 6.99219 66.6836 7.00391 66.9531 7.00391H67.2578V7.08008C67.2578 7.13477 67.2324 7.16211 67.1816 7.16211C67.1348 7.13477 67.0977 7.12109 67.0703 7.12109C67.043 7.12109 67.0293 7.13477 67.0293 7.16211L66.8359 7.12109C66.7422 7.12109 66.3828 7.13477 65.7578 7.16211V7.34961C65.8828 7.97852 66.2031 8.54492 66.7188 9.04883C67.0039 9.24414 67.1465 9.35938 67.1465 9.39453L67.0703 9.42969H66.5312L66.5664 9.50586V9.54688H66.3379V9.62305H66.8008C67.2578 9.75195 67.5645 9.81641 67.7207 9.81641C67.8691 9.81641 68.1133 9.77734 68.4531 9.69922C68.4531 9.64844 68.4277 9.62305 68.377 9.62305H68.1836V9.54688H68.6055C68.6328 9.54688 68.8125 9.50781 69.1445 9.42969H69.5312C69.5898 9.42969 69.6406 9.41797 69.6836 9.39453C69.7344 9.41797 69.7734 9.42969 69.8008 9.42969C70.3047 9.21484 70.7539 8.74023 71.1484 8.00586C71.3008 7.49023 71.377 7.19531 71.377 7.12109V6.81055C71.377 6.76758 71.25 6.73047 70.9961 6.69922L70.9199 6.73438H70.6504C70.5449 6.73438 70.4922 6.47852 70.4922 5.9668L70.3047 5.92578H68.9922V5.84961C69.3789 5.82617 69.6621 5.81445 69.8418 5.81445H70.416V5.77344C70.1738 5.08984 69.7891 4.56445 69.2617 4.19727C68.6797 3.83789 68.2051 3.6582 67.8379 3.6582C66.7637 3.6582 65.8906 4.20898 65.2188 5.31055C65.0391 5.76367 64.9492 6.05859 64.9492 6.19531ZM62.2949 7.00391H62.7168C62.7676 7.01172 62.793 7.03711 62.793 7.08008L62.7168 7.12109H62.2949V7.00391ZM71.7637 7.16211L71.7285 7.23828V7.27344H71.7637C71.7637 7.22266 71.7891 7.19727 71.8398 7.19727V7.16211H71.7637ZM67.0293 7.73633H67.0703C67.1211 7.74414 67.1465 7.76953 67.1465 7.8125V7.92969C67.1465 7.98047 67.1211 8.00586 67.0703 8.00586H67.0293C66.9785 8.00586 66.9531 7.98047 66.9531 7.92969V7.8125C66.9609 7.76172 66.9863 7.73633 67.0293 7.73633ZM62.5234 8.1582H62.7578L62.793 8.35156L62.6816 8.42773H62.5645C62.5137 8.42773 62.4746 8.35156 62.4473 8.19922L62.5234 8.1582Z" fill="url(#paint0_linear_1_2)"/>
<path d="M74.4297 1.37891H81.0215C81.0801 1.37891 81.1328 1.39258 81.1797 1.41992C81.2266 1.39258 81.2793 1.37891 81.3379 1.37891C81.3926 1.44531 81.4199 1.49805 81.4199 1.53711L81.3789 1.61914C81.4062 1.75586 81.459 1.86133 81.5371 1.93555V3.43555L81.4961 3.51172L81.2969 3.47656H80.4707L80.2305 3.51172C80.1875 3.48828 80.123 3.47656 80.0371 3.47656L79.7617 3.51172C79.7148 3.48828 79.6621 3.47656 79.6035 3.47656L79.5215 3.51172C79.4941 3.51172 79.4805 3.5 79.4805 3.47656L79.2871 3.51172H78.8887V4.89453C78.8887 4.94922 78.7832 4.99023 78.5723 5.01758C78.5723 5.11914 78.5469 5.16992 78.4961 5.16992H78.1387C78.0879 5.18164 78.0625 5.20898 78.0625 5.25195C78.0703 5.30273 78.0957 5.32812 78.1387 5.32812H78.5371L78.6133 5.36914L78.5723 5.56836V5.92578L78.8125 6.08398C78.8125 6.13477 78.6543 6.17383 78.3379 6.20117V8.52734C78.3379 8.60156 78.2051 8.6543 77.9395 8.68555V8.72656H78.5371C78.6934 8.79688 78.7715 8.84961 78.7715 8.88477V12.0078C78.7715 12.0586 78.7461 12.084 78.6953 12.084H77.1133C76.8477 12.084 76.4531 12.0703 75.9297 12.043C75.9023 11.5586 75.8887 11.2031 75.8887 10.9766V8.84375C75.6504 8.79297 75.5312 8.74023 75.5312 8.68555L75.4551 8.72656H75.0977V8.68555C75.1055 8.63477 75.1328 8.60938 75.1797 8.60938L75.373 8.65039C75.4238 8.62305 75.4648 8.60938 75.4961 8.60938V6.23633C75.5039 6.18555 75.5293 6.16016 75.5723 6.16016H75.9297V6.00195C75.7969 6.00195 75.7305 5.97656 75.7305 5.92578V5.41016C75.7305 5.35547 75.7031 5.32812 75.6484 5.32812H75.2969C75.2422 5.32812 75.2148 5.30273 75.2148 5.25195C75.2227 5.19727 75.25 5.16992 75.2969 5.16992H75.6484L75.8066 4.97656H76.0059L76.0469 4.61914C76.0469 4.56836 76.0332 4.54297 76.0059 4.54297L76.0469 4.34375V3.71094C76.0469 3.59766 75.9941 3.51953 75.8887 3.47656C75.8613 3.47656 75.8477 3.48828 75.8477 3.51172L75.6484 3.47656H73.3633C73.3086 3.47656 73.2812 3.44922 73.2812 3.39453V1.89453C73.1758 1.89453 73.123 1.86914 73.123 1.81836V1.77734C73.123 1.71875 73.1367 1.66602 73.1641 1.61914C73.1367 1.57227 73.123 1.51953 73.123 1.46094C73.1504 1.46094 73.1641 1.44727 73.1641 1.41992C73.7305 1.39258 74.1523 1.37891 74.4297 1.37891ZM74.7812 5.16992H74.8633C74.9141 5.18164 74.9395 5.20898 74.9395 5.25195C74.9395 5.30273 74.9141 5.32812 74.8633 5.32812H74.7812C74.7305 5.32812 74.7051 5.30273 74.7051 5.25195C74.7129 5.19727 74.7383 5.16992 74.7812 5.16992ZM75.8887 8.29297V8.36914H75.9297V8.29297H75.8887Z" fill="url(#paint1_linear_1_2)"/>
<defs>
<linearGradient id="paint0_linear_1_2" x1="1" y1="7" x2="81" y2="7" gradientUnits="userSpaceOnUse">
<stop stop-color="#707070"/>
<stop offset="1" stop-color="#FCFF51"/>
</linearGradient>
<linearGradient id="paint1_linear_1_2" x1="1" y1="7" x2="81" y2="7" gradientUnits="userSpaceOnUse">
<stop stop-color="#707070"/>
<stop offset="1" stop-color="#EBEF10"/>
</linearGradient>
</defs>
</svg>
